<svg xmlns="http://www.w3.org/2000/svg" viewBox="0 0 512 512">
    <rect width="512" height="512" rx="100" fill="#1a6b4a" />
    <path fill="#ffffff"
        d="M256,96c-88.4,0-160,71.6-160,160s71.6,160,160,160s160-71.6,160-160S344.4,96,256,96z M256,384 c-70.7,0-128-57.3-128-128c0-70.7,57.3-128,128-128c70.7,0,128,57.3,128,128C384,326.7,326.7,384,256,384z" />
    <path fill="#d4a843"
        d="M256,160c-53,0-96,43-96,96s43,96,96,96s96-43,96-96S309,160,256,160z M256,320c-35.3,0-64-28.7-64-64 s28.7-64,64-64s64,28.7,64,64S291.3,320,256,320z" />
</svg>
